Coordinates
version=1
nRows=5
nColumns=40
inDegrees=yes

Units are S.I. units (second, meters, Newtons, ...)
Angles are in degrees.

endheader
time	pelvis_tilt	pelvis_list	pelvis_rotation	pelvis_tx	pelvis_ty	pelvis_tz	hip_flexion_r	hip_adduction_r	hip_rotation_r	knee_angle_r	knee_angle_r_beta	ankle_angle_r	subtalar_angle_r	mtp_angle_r	hip_flexion_l	hip_adduction_l	hip_rotation_l	knee_angle_l	knee_angle_l_beta	ankle_angle_l	subtalar_angle_l	mtp_angle_l	lumbar_extension	lumbar_bending	lumbar_rotation	arm_flex_r	arm_add_r	arm_rot_r	elbow_flex_r	pro_sup_r	wrist_flex_r	wrist_dev_r	arm_flex_l	arm_add_l	arm_rot_l	elbow_flex_l	pro_sup_l	wrist_flex_l	wrist_dev_l
     20.63000000	     -4.25048934	     -3.93668367	      6.46825312	      0.94431225	      0.93164887	      0.35327982	     23.91328122	     -7.84412851	     -9.40545566	     61.53074359	     61.53074359	      5.99079457	    -13.87261674	      0.88722957	     16.39883848	     -5.60770854	     -9.94501886	     21.61091317	     21.61091317	     13.41601382	     -2.67030285	     -1.19814915	     -9.67741081	      3.33484665	      2.83731229	      0.26663185	    -14.28178253	     -4.24241442	     35.11480842	     45.17675095	      0.00000000	      0.00000000	     16.76914346	    -18.42725731	    -13.45795366	     41.85336087	     45.08243995	      0.00000000	      0.00000000
     20.64321429	     -4.30852775	     -3.96043724	      5.96624709	      0.94299736	      0.93202605	      0.35381503	     25.35276489	     -7.57813817	     -8.91519490	     61.97773169	     61.97773169	      5.81568214	    -14.18263096	      0.97595290	     15.89192516	     -5.64920040	    -10.02522710	     21.23006841	     21.23006841	     13.45019277	     -3.22957629	     -1.11846819	     -9.68606448	      3.30215419	      2.91394234	     -0.99574492	    -14.09398417	     -4.12392254	     34.35839962	     45.20086685	      0.00000000	      0.00000000	     17.82350338	    -18.77343078	    -13.78403008	     42.43936150	     45.15770588	      0.00000000	      0.00000000
     20.65642857	     -4.25118700	     -4.05991594	      5.50036091	      0.94177345	      0.93253330	      0.35444313	     26.55880492	     -7.23429717	     -8.58991362	     62.24055643	     62.24055643	      5.66262022	    -14.36196359	      1.04154111	     15.28463702	     -5.80269322	    -10.11993324	     20.88329887	     20.88329887	     13.53119112	     -3.65567352	     -1.06556886	     -9.81203666	      3.32351524	      2.76243741	     -2.17075256	    -13.89597525	     -4.05516992	     33.90088416	     45.21084842	      0.00000000	      0.00000000	     18.65067038	    -19.33014804	    -14.06692300	     43.05545545	     45.21301494	      0.00000000	      0.00000000
     20.66964286	     -4.19277435	     -4.09993382	      4.96725623	      0.94052168	      0.93305399	      0.35505972	     27.72951522	     -6.86170931	     -8.12976629	     62.35196735	     62.35196735	      5.53111224	    -14.62732927	      1.40173541	     14.54616631	     -5.75507337	     -9.80951184	     20.26588657	     20.26588657	     13.28127446	     -4.95886275	     -1.16579094	    -10.01410812	      3.30038094	      3.29426819	     -3.70161135	    -13.87263725	     -4.01963710	     33.52352522	     45.23024780	      0.00000000	      0.00000000	     19.56360066	    -19.23343650	    -14.85040514	     44.81916356	     45.35844330	      0.00000000	      0.00000000
     20.68285714	     -4.13578934	     -4.22191688	      4.48416191	      0.93924738	      0.93339079	      0.35575290	     28.78804526	     -6.51272945	     -7.92615309	     62.23240780	     62.23240780	      5.45752115	    -14.49837745	      1.41336883	     14.03415124	     -5.97040637	    -10.03940169	     20.09383109	     20.09383109	     13.43040452	     -5.22255623	     -1.17297469	    -10.14346807	      3.41374535	      2.88676084	     -4.51064912	    -13.77705149	     -4.00914129	     33.27986589	     45.23502701	      0.00000000	      0.00000000	     20.14126522	    -19.83017122	    -15.02587492	     45.17789711	     45.38965330	      0.00000000	      0.00000000
